<svg xmlns="http://www.w3.org/2000/svg" xmlns:xlink="http://www.w3.org/1999/xlink" id="Layer_1" width="569.6" height="342" x="0" style="enable-background:new 0 0 569.6 342" y="0" version="1.1" viewBox="0 0 569.6 342" xml:space="preserve"><style type="text/css">.st0{fill:#22273f}.st1{fill:#19af54}</style><metadata><sfw xmlns="http://ns.adobe.com/SaveForWeb/1.0/"><slices/><sliceSourceBounds width="554" height="332.5" x="971.9" y="-583.7" bottomLeftOrigin="true"/></sfw></metadata><switch><g><g><g><path d="M287.3,284.7c1.5-5.2,5-6.1,9.1-6.1c7.7,0.1,15.5,0,23.2,0c1.1,0,2.3,0,3.4,0.2c4.4,0.4,7.3,3.3,7.8,7.7 c0.1,1.2,0.2,2.4,0.2,3.6c0,13.6,0,27.1,0,40.7c0,2.9-0.1,3-3,3c-5.4,0-4.9,0.6-4.9-4.9c0-12.9,0-25.9,0-38.8 c0-4.9-1.3-6.2-6.2-6.2c-6.6,0-13.2,0-19.8,0c-4.6,0-6,1.4-6,6c0,13.7,0,27.4,0,41.1c0,2.7-0.1,2.8-2.7,2.8 c-5.7,0-5.1,0.7-5.1-5.1c0-12.5,0-25,0-37.5c0-1.1,0-2.1-0.1-3.2c-0.3-2.5-1.7-4-4.1-4c-7.8-0.1-15.6-0.1-23.4,0 c-2.5,0-3.8,1.5-4.2,4c-0.1,1-0.2,2-0.2,3c0,13.3,0,26.6,0,39.8c0,3,0,3-2.9,3c-5.7,0-4.8,0.5-4.9-4.9c0-13,0-26,0-39 c0-1.4,0.1-2.8,0.4-4.2c0.9-4.2,3.6-6.8,7.8-6.8c9.7-0.2,19.5-0.1,29.2-0.1C284.2,278.9,286,281,287.3,284.7z" class="st0"/><path d="M325.9,335.3c-1.6,0-2.5-0.1-3.3-0.8c-0.9-0.9-0.9-2.1-0.9-4.4l0-14.1l0-25.9c0-4.1-0.6-4.7-4.8-4.8 c-6.6,0-13.2,0-19.8,0c-3.8,0-4.6,0.8-4.6,4.5l0,41.1c0,1.5,0,2.6-0.8,3.4c-0.8,0.8-2,0.8-3.4,0.8l-1.7,0c-2,0-3.1,0-4-0.8 c-0.9-0.9-0.9-2-0.9-4.4l0-1.4l0-37.5c0-1,0-2-0.1-3c-0.3-2.4-1.7-2.7-2.7-2.7c-7.7-0.1-15.6-0.1-23.4,0c-1.1,0-2.4,0.3-2.8,2.8 c-0.1,0.9-0.1,1.8-0.1,2.8l0,39.8c0,1.7,0,2.8-0.8,3.7c-0.8,0.8-1.9,0.8-3.6,0.8l-1.3,0c-2.2,0-3.4,0-4.2-0.8 c-0.8-0.8-0.8-1.9-0.7-3.7c0-0.5,0-1.1,0-1.8c0-13,0-26,0-39c0-1.3,0-2.9,0.4-4.5c1.1-5,4.4-7.9,9.2-8c10-0.2,19.9-0.1,29.2-0.1 c3.3,0,5.2,1.8,6.4,3.8c2.2-3.5,5.8-4.1,9.2-4c5.2,0.1,10.3,0.1,15.5,0l7.7,0c1.2,0,2.4,0,3.5,0.2c5,0.5,8.5,3.9,9.1,8.9 c0.1,1.3,0.2,2.5,0.2,3.8c0,13.6,0,27.1,0,40.7c0,1.5,0,2.8-0.8,3.6c-0.8,0.8-2,0.8-3.6,0.8l-1.4,0 C326.5,335.3,326.2,335.3,325.9,335.3z M267.2,282.5c4,0,7.9,0,11.9,0.1c3.1,0,5.2,2,5.6,5.3c0.1,1.1,0.1,2.2,0.1,3.3l0,37.5 l0,1.4c0,1.1,0,2.2,0.1,2.4c0-0.1,1-0.1,1.9-0.1l1.8,0c0.3,0,0.9,0,1.2,0c0-0.4,0-1,0-1.3l0-41.1c0-5.3,2.1-7.4,7.5-7.4 c6.6,0,13.2,0,19.8,0c5.7,0,7.6,1.9,7.6,7.6l0,38.8l0,1.2c0,1.1,0,2.2,0.1,2.4c0.1-0.1,1-0.1,2-0.1l1.4,0c0.5,0,1.4,0,1.7-0.1 c-0.1,0-0.1-1-0.1-1.5c0-13.6,0-27.1,0-40.7c0-1.1-0.1-2.3-0.2-3.4c-0.4-3.6-2.9-6-6.5-6.4c-1.1-0.1-2.2-0.1-3.3-0.1l-7.7,0 c-5.2,0-10.3,0-15.5,0c-4,0-6.5,0.8-7.7,5l-1.3,4.4l-1.5-4.3c-1.2-3.5-2.7-4.9-5.1-4.9c-9.3-0.1-19.2-0.1-29.1,0.1 c-3.4,0.1-5.7,2.1-6.4,5.7c-0.3,1.4-0.3,2.8-0.3,3.9c0,13,0,26,0,39c0,0.7,0,1.4,0,1.9c0,0.6,0,1.2,0,1.5c0.4,0.1,1.3,0.1,2.1,0 h1.4c0.5,0,1.1,0,1.5,0c0-0.4,0-1,0-1.5l0-39.8c0-1.1,0-2.1,0.2-3.2c0.5-3.3,2.5-5.2,5.6-5.2 C259.4,282.5,263.3,282.5,267.2,282.5z" class="st0"/></g><g><path d="M514.6,303.6c4.6,0,8.9,0.1,13.2-0.1c0.7,0,1.5-0.7,2-1.2c5.8-7.1,11.6-14.2,17.3-21.3 c1.3-1.6,2.6-2.4,4.7-2.3c2.2,0.1,4.3,0,6.5,0c0.1,0.2,0.2,0.4,0.3,0.6c-7.3,8.9-14.5,17.9-21.9,27c7.3,9,14.6,18,21.9,27 c-3.9,1.8-9.7,0.6-12-2.4c-5.5-6.8-11.1-13.7-16.7-20.5c-0.7-0.8-2-1.4-3-1.4c-4-0.2-8.1-0.1-12.3-0.1c0,4.6,0,8.8,0,13 c0,3.3-0.1,6.5,0,9.8c0,1.6-0.6,2.1-2.1,2.1c-6.7-0.1-5.7,0.7-5.7-5.4c0-22.6,0-45.2,0-67.8c0-3.1,0-3.1,3.1-3.1 c5.4,0,4.7-0.5,4.7,4.6c0,12.9,0,25.9,0,38.8C514.6,301.8,514.6,302.5,514.6,303.6z" class="st0"/><path d="M554.5,335.5c-3.5,0-7.1-1.4-9-3.7l-3.3-4c-4.4-5.5-8.9-11-13.4-16.4c-0.4-0.5-1.3-0.9-1.9-0.9 c-2.9-0.1-5.8-0.1-8.8-0.1l-2,0l0,14.5c0,2.3,0,4.6,0,6.9c0,1.2-0.3,2.1-0.9,2.7c-0.6,0.6-1.5,0.9-2.7,0.9c-0.8,0-1.5,0-2.1,0 c-2.3,0-3.4,0-4.3-0.9c-0.8-0.9-0.8-2-0.8-3.9c0-0.6,0-1.3,0-2.1c0-17.1,0-34.2,0-51.3l0-16.5c0-1.8,0-2.9,0.8-3.7 c0.8-0.8,1.9-0.8,3.7-0.8l1.3,0c2.1,0,3.2,0,4.1,0.8c0.8,0.8,0.8,1.9,0.8,3.7l0,1.5c0,9.1,0,18.2,0,27.3l0,12.6l2,0 c3.3,0,6.5,0,9.7-0.1c0.1,0,0.6-0.3,0.9-0.7c5.8-7.1,11.6-14.2,17.3-21.3c1.7-2.1,3.5-2.9,5.9-2.8c1.5,0.1,2.9,0.1,4.4,0l2.9,0 l1.1,2.2l-21.7,26.8l22.3,27.5l-1.7,0.8C557.8,335.1,556.1,335.5,554.5,335.5z M521.3,307.4c1.9,0,3.8,0,5.6,0.1 c1.5,0.1,3.1,0.9,4,2c4.5,5.4,9,10.9,13.4,16.4l3.3,4c1.7,2,5.4,3.1,8.5,2.5l-21.3-26.2l21.2-26.1c-1.4,0-2.9,0-4.3-0.1 c-1.4-0.1-2.4,0.4-3.5,1.7c-5.7,7.2-11.5,14.3-17.3,21.3c-0.7,0.8-1.9,1.7-3.1,1.8c-3.2,0.1-6.4,0.1-9.8,0.1l-4.8,0l0-15.5 c0-9.1,0-18.2,0-27.3l0-1.5c0-0.6,0-1.3,0-1.6c-0.4,0-1.2,0-1.9,0h-1.3c-0.6,0-1.2,0-1.6,0c0,0.4,0,1,0,1.6l0,16.5 c0,17.1,0,34.2,0,51.3c0,0.8,0,1.6,0,2.2c0,0.8,0,1.7,0,1.9c0-0.2,1.4-0.1,2.8-0.1c0.4,0,0.9,0,1.5,0c0.4,0,0.6,0,0.6-0.1 c0,0,0-0.2,0-0.6c-0.1-2.3,0-4.6,0-6.9l0-17.4l4.8,0C519.1,307.4,520.2,307.4,521.3,307.4z" class="st0"/></g><g><path d="M113.9,300.6c0-4.3,0.1-8.5,0-12.7c-0.1-2.6-2-4-5.1-4c-8,0-16,0-24.1,0c-2,0-4-0.1-6,0 c-2,0.1-2.8-0.5-2.8-2.6c0-2.1,0.7-2.7,2.7-2.7c9.7,0.1,19.4,0,29.2,0c1.8,0,3.7,0,5.5,0.1c4.5,0.3,7.3,2.8,8.2,7.3 c0.2,1.1,0.3,2.3,0.3,3.4c0,11.2,0,22.4,0,33.6c0,0.6-0.1,1.3-0.1,1.9c-0.7,5.7-3.5,8.6-9.1,8.7c-10.9,0.2-21.7,0.2-32.6,0 c-6-0.1-9.1-3.7-9.2-9.7c0-2.4,0-4.8,0-7.2c0.1-5.5,2.8-9.1,8.2-10.1c8.4-1.6,16.9-2.9,25.3-4.4 C107.5,301.7,110.6,301.2,113.9,300.6z M113.9,306.1c-0.6,0-0.9,0-1.3,0c-9.7,1.6-19.4,3.2-29.1,4.9c-3.2,0.6-4.8,2.7-4.9,6 c-0.1,1.8,0,3.5,0,5.3c0,4.6,1.5,6.1,6.1,6.1c4.5,0,8.9,0,13.4,0c3.9,0,7.8,0,11.7-0.2c2.6-0.2,3.9-1.7,4-4.3 c0.1-2.1,0-4.1,0-6.2C113.9,314,113.9,310.1,113.9,306.1z" class="st0"/><path d="M96.1,335.3c-5.5,0-10.9-0.1-16.2-0.2C73.4,335,69.5,331,69.4,324c0-2.4,0-4.9,0-7.3 c0.1-6.3,3.4-10.4,9.4-11.5c5.9-1.1,11.8-2.1,17.8-3.1l15.9-2.7l0-2.6c0-3,0.1-5.9-0.1-8.8c0-0.6-0.1-2.6-3.6-2.6 c-6,0-12,0-18,0l-7.9,0c-1.3,0-2.7,0-4,0c-0.9,0-2.3,0-3.3-0.9c-1-0.9-1.1-2.2-1.1-3.2c0-0.9,0.1-2.2,1-3.1c0.9-0.9,2.2-1,3.2-1 c6.5,0.1,13.1,0,19.6,0h9.5c1.9,0,3.8,0,5.6,0.1c5.2,0.4,8.5,3.4,9.5,8.4c0.2,1.3,0.4,2.5,0.4,3.6c0,11.2,0,22.4,0,33.7 c0,0.7-0.1,1.4-0.1,2.1c-0.8,6.6-4.3,9.8-10.5,9.9C107.1,335.3,101.6,335.3,96.1,335.3z M96.7,282.5c4,0,8,0,12,0 c3.9,0,6.4,2,6.5,5.4c0.1,2.9,0.1,5.9,0.1,8.9l0,5L97,305c-5.9,1-11.8,2-17.7,3.1c-4.6,0.9-7,3.8-7,8.7c0,2.4,0,4.8,0,7.2 c0.1,5.4,2.7,8.2,7.8,8.3c10.6,0.2,21.5,0.2,32.5,0c4.8-0.1,7.1-2.3,7.7-7.4c0.1-0.6,0.1-1.2,0.1-1.7c0-11.2,0-22.4,0-33.6 c0-1-0.1-2-0.3-3.1c-0.7-3.8-3-5.8-6.9-6.1c-1.8-0.1-3.5-0.1-5.4-0.1l-9.5,0c-6.6,0-13.1,0-19.7,0c-0.9-0.1-1.1,0.2-1.1,0.2 c0,0-0.2,0.2-0.2,1.1c0,0.9,0.2,1.1,0.2,1.1c0,0,0.2,0.2,1.1,0.1c1.4-0.1,2.8-0.1,4.2,0l1.8,0l6,0 C92.7,282.5,94.7,282.5,96.7,282.5z M91.2,330c-2.2,0-4.3,0-6.5,0c-5.4,0-7.6-2.2-7.6-7.6l0-1.3c0-1.4,0-2.7,0-4.1 c0.2-4.1,2.3-6.7,6.1-7.4c7.3-1.3,14.7-2.5,22-3.8l7.2-1.2c0.3-0.1,0.6-0.1,1,0l1.9,0l0,14.8c0,1.5,0,3.1-0.1,4.6 c-0.2,3.4-2.1,5.5-5.4,5.7c-3.1,0.2-6.2,0.2-9.2,0.2l-2.6,0C95.8,330,93.5,330,91.2,330z M112.5,307.6l-6.8,1.1 c-7.3,1.2-14.7,2.4-22,3.7c-2.5,0.4-3.6,1.9-3.7,4.7c-0.1,1.3,0,2.6,0,3.9l0,1.3c0,3.8,0.9,4.7,4.7,4.7c4.5,0,8.9,0,13.4,0 l2.6,0c3,0,6,0,9-0.2c1.2-0.1,2.6-0.5,2.7-3c0.1-1.5,0.1-3,0-4.4l0-1.7l0-8.3L112.5,307.6z" class="st0"/></g><g><path d="M219.6,300.6c0-4.3,0.1-8.5,0-12.7c-0.1-2.6-2-4-5.1-4c-8,0-16,0-24.1,0c-2,0-4-0.1-6,0 c-2,0.1-2.8-0.5-2.8-2.6c0-2.1,0.7-2.7,2.7-2.7c9.7,0.1,19.4,0,29.2,0c1.8,0,3.7,0,5.5,0.1c4.5,0.3,7.4,2.8,8.2,7.3 c0.3,1.4,0.3,2.8,0.3,4.2c0,10.6,0,21.3,0,31.9c0,0.9,0,1.8-0.1,2.8c-0.7,5.7-3.6,8.6-9.4,8.7c-10.7,0.2-21.4,0.2-32.2,0 c-6.1-0.1-9.3-3.6-9.4-9.8c0-2.4,0-4.8,0-7.2c0.1-5.5,2.8-9.1,8.2-10.1c8.4-1.6,16.9-2.9,25.3-4.4 C213.2,301.7,216.3,301.2,219.6,300.6z M219.6,306.1c-0.6,0-1,0-1.3,0c-9.6,1.6-19.3,3.2-28.9,4.9c-3.3,0.6-5,2.8-5.1,6.1 c-0.1,1.8,0,3.7,0,5.5c0,4.2,1.5,5.8,5.8,5.9c3.7,0.1,7.4,0,11.1,0c4.4,0,8.8,0.1,13.2,0c3.9-0.1,5.3-1.6,5.3-5.4 c0-2.8,0-5.7,0-8.5C219.6,311.8,219.6,309,219.6,306.1z" class="st0"/><path d="M201.8,335.3c-5.4,0-10.7,0-15.9-0.1c-6.8-0.1-10.7-4.2-10.8-11.2c0-2.4,0-4.9,0-7.3 c0.1-6.3,3.4-10.4,9.4-11.5c5.9-1.1,11.8-2.1,17.8-3.1l15.9-2.7l0-2.6c0-3,0.1-5.9-0.1-8.8c0-0.6-0.1-2.6-3.6-2.6 c-6,0-12,0-18,0l-7.9,0c-1.3,0-2.7,0-4,0c-0.9,0-2.3,0-3.3-0.9c-1-0.9-1.1-2.2-1.1-3.2c0-0.9,0.1-2.2,1-3.1c0.9-0.9,2.2-1,3.2-1 c6.5,0.1,13.1,0,19.6,0h9.5c1.9,0,3.8,0,5.6,0.1c5.2,0.4,8.6,3.4,9.5,8.4c0.2,1.3,0.4,2.8,0.4,4.5c0,10.6,0,21.3,0,31.9 c0,1,0,2-0.2,2.9c-0.8,6.5-4.4,9.9-10.8,10C212.6,335.3,207.2,335.3,201.8,335.3z M202.4,282.5c4,0,8,0,12,0 c3.9,0,6.4,2,6.5,5.4c0.1,2.9,0.1,5.9,0.1,8.9l0,5l-18.3,3.1c-5.9,1-11.8,2-17.7,3.1c-4.6,0.9-7,3.8-7,8.7c0,2.4,0,4.8,0,7.2 c0.1,5.5,2.8,8.3,8,8.3c10.4,0.2,21.2,0.2,32.1,0c4.9-0.1,7.3-2.3,8-7.5c0.1-0.9,0.1-1.7,0.1-2.6c0-10.6,0-21.3,0-31.9 c0-1.5-0.1-2.8-0.3-4c-0.7-3.8-3-5.8-6.9-6.1c-1.8-0.1-3.7-0.1-5.4-0.1l-9.5,0c-6.6,0-13.1,0-19.7,0c-1-0.1-1.1,0.2-1.1,0.2 c0,0-0.2,0.2-0.2,1.1c0,0.9,0.2,1.1,0.2,1.1c0,0,0.2,0.2,1.1,0.1c1.4-0.1,2.8-0.1,4.2,0l1.8,0l6,0 C198.4,282.5,200.4,282.5,202.4,282.5z M208.6,330c-1.2,0-2.4,0-3.6,0l-3.9,0l-3.3,0c-2.6,0-5.2,0-7.8,0c-5-0.1-7.1-2.3-7.2-7.3 l0-1c0-1.5,0-3.1,0-4.6c0.1-4.1,2.4-6.8,6.3-7.5c7.1-1.3,14.3-2.4,21.4-3.6l7.5-1.2c0.4-0.1,0.7,0,1,0l2,0l0,12.6 c0,2,0,3.9,0,5.9c-0.1,4.6-2.1,6.7-6.7,6.8C212.4,330,210.5,330,208.6,330z M201.1,327.1l3.9,0c3.1,0,6.2,0,9.2-0.1 c3-0.1,3.9-0.9,3.9-4c0-2,0-3.9,0-5.9l0-9.7l-7.1,1.2c-7.1,1.2-14.3,2.4-21.4,3.6c-2.6,0.5-3.8,2-3.9,4.8c-0.1,1.5,0,3,0,4.5 l0,1c0,3.5,0.9,4.4,4.4,4.4c2.6,0,5.2,0,7.8,0L201.1,327.1z" class="st0"/></g><g><path d="M439.5,309.7c0-6.9,0-13.8,0-20.7c0-6.9,3.2-10.3,10.1-10.3c10.1-0.1,20.2-0.1,30.2,0 c6.8,0.1,10,3.4,10,10.2c0.1,14.1,0,28.3,0.1,42.4c0,1.9-0.6,2.5-2.5,2.5c-6.3-0.1-5.3,0.7-5.3-5.3c0-12.6,0-25.1,0-37.7 c0-1,0-2-0.2-3c-0.5-2.6-1.9-3.9-4.5-3.9c-8.4-0.1-16.9-0.1-25.3,0c-2.8,0-4.3,1.4-4.6,4.3c-0.1,0.9-0.1,1.8-0.1,2.8 c0,13.3,0,26.6,0,39.8c0,3,0,3-3,3c-5.7,0-4.8,0.5-4.8-4.9C439.5,322.5,439.5,316.1,439.5,309.7z" class="st0"/><path d="M487.6,335.3c-0.1,0-0.1,0-0.2,0l-1.9,0c-2.1,0-3.2,0-4.1-0.9c-0.8-0.8-0.8-1.9-0.7-3.7c0-0.6,0-1.3,0-2.1 c0-7.9,0-15.9,0-23.8v-13.9c0-0.9,0-1.9-0.2-2.7c-0.3-2-1.2-2.7-3.1-2.7c-8.4-0.1-16.9-0.1-25.3,0c-2.1,0-2.9,0.8-3.2,3 c-0.1,0.8-0.1,1.7-0.1,2.6l0,39.8c0,1.7,0,2.8-0.8,3.6c-0.8,0.8-1.9,0.8-3.6,0.8l-1.3,0c-2.2,0-3.4,0-4.2-0.8 c-0.8-0.8-0.8-1.9-0.8-3.6c0-0.5,0-1.1,0-1.9c0-4.5,0-9.1,0-13.7l0-5.5l0-6.7c0-4.6,0-9.3,0-13.9c0-7.8,3.8-11.7,11.5-11.8 c10.3-0.1,20.4-0.1,30.3,0c7.5,0.1,11.4,4,11.4,11.7c0,7.1,0,14.2,0,21.4c0,7,0,14,0,21c0,0.9-0.1,2.1-1,3 C489.5,335.2,488.4,335.3,487.6,335.3z M483.5,332.3c0.4,0.1,1.2,0.1,1.9,0.1l2,0c0.7,0,0.9-0.1,0.9-0.1c0,0,0.1-0.2,0.1-0.9 c0-7,0-14,0-21c0-7.1,0-14.2,0-21.4c0-6.1-2.6-8.7-8.6-8.8c-9.8-0.1-20-0.1-30.2,0c-6.1,0.1-8.6,2.7-8.7,8.9c0,4.6,0,9.3,0,13.9 l0,6.7l0,5.5c0,4.5,0,9.1,0,13.6c0,0.8,0,1.4,0,1.9c0,0.5,0,1.2,0,1.5c0.4,0.1,1.3,0.1,2.1,0h1.4c0.5,0,1.1,0,1.5,0 c0-0.4,0-1,0-1.5l0-39.8c0-1,0-2,0.1-2.9c0.6-4.5,3.6-5.5,6-5.5c8.5-0.1,16.9-0.1,25.4,0c3.3,0,5.3,1.8,5.9,5.1 c0.2,1.1,0.2,2.2,0.2,3.2v13.9c0,7.9,0,15.9,0,23.8c0,0.8,0,1.6,0,2.2C483.5,331.3,483.5,332,483.5,332.3z" class="st0"/></g><g><path d="M16.2,328.6c1.1,0,2,0,2.8,0c13.3,0,26.7,0,40,0c2.7,0,3.9,1.8,2.7,4.3c-0.3,0.5-1.4,0.9-2.1,0.9 c-5.6,0.1-11.2,0-16.8,0c-10.6,0-21.2,0-31.7,0c-2.7,0-2.9-0.2-2.9-2.9c0-23.5,0-47,0-70.5c0-2.6,0.2-2.8,2.8-2.8 c5.8,0,5.2-0.6,5.2,5c0,33.3,0,54.3,0,63C16.2,326.5,16.2,327.4,16.2,328.6z" class="st1"/><path d="M50.6,335.3c-1.3,0-2.6,0-3.8,0l-35.6,0c-3.5,0-4.3-0.8-4.3-4.3v-70.5c0-1.3,0-2.6,0.8-3.4 c0.8-0.8,2.1-0.9,3.3-0.8l1.6,0c2.2,0,3.4,0,4.2,0.8c0.9,0.9,0.8,2,0.8,4.1l0,1.5c0,25.8,0,44.3,0,55.3l0,9.2l41.4,0 c1.8,0,3.3,0.7,4.1,1.9c0.8,1.2,0.8,2.8,0,4.4c-0.6,1.2-2.4,1.7-3.4,1.7C56.7,335.3,53.7,335.3,50.6,335.3z M10.9,259 c-0.4,0-1.1,0-1.3,0.1c0.1,0,0.1,1,0.1,1.3v70.5c0,0.4,0,1.4,0.1,1.6c0-0.1,1-0.1,1.4-0.1l35.6,0c4.3,0,8.6,0,13,0 c0.3,0,0.8-0.2,0.9-0.3c0.2-0.5,0.3-1.1,0.1-1.5c-0.2-0.4-0.8-0.6-1.6-0.6l-44.3,0l0-12.1c0-11,0-29.5,0-55.3l0-1.6 c0-0.9,0-1.9-0.1-2.2c-0.1,0.1-1.1,0.1-2.1,0.1l-1.6,0C11,259,10.9,259,10.9,259z" class="st1"/></g><g><path d="M349.1,295.9c0-11.9,0-23.7,0-35.6c0-2.7,0.1-2.8,2.7-2.7c5.7,0,5-0.7,5,5c0,33.5,0,54.6,0,63.5 c0,2,0.5,2.6,2.6,2.6c13.5-0.1,27,0,40.5,0c2.6,0,3.9,2,2.6,4.3c-0.3,0.6-1.5,0.9-2.3,0.9c-11.4,0.1-22.9,0-34.3,0 c-4.8,0-9.5-0.1-14.3,0c-2,0-2.5-0.7-2.5-2.6C349.1,319.5,349.1,307.7,349.1,295.9z" class="st0"/><path d="M351.4,335.3c-0.9,0-2-0.1-2.8-0.9c-0.9-0.9-1-2.1-1-3.1c0.1-8.8,0-17.7,0-26.5l0-19l0-25.4 c0-1.5,0-2.6,0.8-3.4c0.8-0.8,1.9-0.8,3.4-0.8l1.6,0c2.1,0,3.2,0,4,0.8c0.9,0.9,0.8,2,0.8,4.1l0,1.5c0,33.5,0,54.6,0,63.5 c0,0.9,0.1,1.1,0.1,1.1c0,0,0.2,0.1,1,0.1c0,0,0,0,0.1,0c10.4-0.1,20.9-0.1,31.3-0.1l9.2,0c1.8,0,3.2,0.7,4,2 c0.8,1.3,0.7,2.9-0.1,4.4c-0.7,1.3-2.6,1.6-3.6,1.6c-9.4,0-18.7,0-28.1,0l-10.3,0c-3.4,0-6.8,0-10.1,0 C351.6,335.3,351.5,335.3,351.4,335.3z M350.6,332.3c0,0,0.2,0.1,0.9,0.1c3.4-0.1,6.8-0.1,10.2-0.1l10.3,0c9.3,0,18.7,0,28,0 c0.5,0,1.1-0.2,1.2-0.3c0.2-0.5,0.3-1,0.1-1.4c-0.2-0.4-0.8-0.6-1.5-0.6l-9.2,0c-10.4,0-20.8,0-31.3,0c-1.1,0-2.2-0.1-3.1-0.9 c-0.8-0.8-1-2-0.9-3.1c0-8.8,0.1-30,0-63.5l0-1.5c0-0.9,0-1.9-0.1-2.2c0,0.1-1,0.1-1.9,0.2l-1.7,0c-0.4,0-0.9,0-1.3,0 c0,0.3,0,0.9,0,1.3l0,25.4l0,19c0,8.8,0,17.7,0,26.5C350.5,332.1,350.6,332.3,350.6,332.3L350.6,332.3z" class="st0"/></g><g><path d="M145.5,283.9c0,1,0,1.7,0,2.4c0,11.9,0,23.7,0,35.6c0,0.8,0,1.7,0.2,2.5c0.4,2.5,1.5,3.8,4,3.9 c4.2,0.2,8.5,0.1,12.8,0.2c0.9,0,1.7,0,2.6,0c2.6,0,3.9,2.2,2.6,4.4c-0.2,0.4-0.9,0.8-1.3,0.8c-6.8,0-13.6,0.2-20.4-0.2 c-5.3-0.4-8-3.8-8.1-9.2c-0.1-6.6,0-13.2,0-19.8c0-11.3,0-22.6,0-33.9c0-2,0.6-2.6,2.6-2.6c6,0.2,5.3-0.7,5.3,5.2 c0,5.4,0,5.4,5.5,5.4c4,0,8,0.1,11.9,0c2.1-0.1,2.2,1,2.2,2.7c0,1.7-0.2,2.7-2.3,2.6C157.2,283.9,151.5,283.9,145.5,283.9z" class="st0"/><path d="M156.1,335.3c-3.4,0-6.9-0.1-10.3-0.3c-5.9-0.4-9.3-4.3-9.4-10.6c-0.1-4.8-0.1-9.5,0-14.3l0-15 c0-8.1,0-16.3,0-24.4c0-1,0.1-2.2,1-3.1c0.9-0.9,2.2-1,3-0.9c0.8,0,1.4,0,2,0c2,0,3.1,0,3.9,0.9c0.8,0.8,0.8,2,0.8,4l0,1.7 c0,4,0,4,4,4l3.6,0c2.8,0,5.5,0,8.3,0c1.2-0.1,2.1,0.2,2.8,0.9c1,0.9,1,2.3,1,3.2c0,1.2-0.1,2.3-1,3.2c-0.6,0.6-1.6,1-2.8,0.9 c-4.1-0.1-8.1-0.1-12.3,0l-3.6,0l0,36.6c0,0.8,0,1.6,0.1,2.3c0.3,2.2,1.2,2.6,2.6,2.7c3,0.1,6,0.2,9,0.2l6.3,0 c1.8,0,3.2,0.8,4,2.1c0.8,1.3,0.7,2.9-0.1,4.4c-0.5,1-1.9,1.5-2.9,1.5c-1.6,0-3.3,0-4.9,0C159.4,335.2,157.7,335.3,156.1,335.3z M139.3,269.6c0,0-0.1,0.2-0.1,1c0.1,8.1,0.1,16.3,0,24.4l0,15c0,4.7,0,9.5,0,14.2c0,3.3,1.3,7.4,6.7,7.8c5,0.3,10.1,0.3,15,0.3 c1.8,0,3.5,0,5.3,0c0.4-0.7,0.5-1.2,0.2-1.6c-0.2-0.4-0.8-0.7-1.5-0.7l-6.2,0c-3.1,0-6.1,0-9.2-0.2c-3.1-0.2-4.9-1.9-5.3-5.1 c-0.1-0.9-0.2-1.8-0.2-2.7l0-39.4l6.5,0c4.2,0,8.3,0,12.3,0c0.5,0,0.7-0.1,0.7-0.1c0,0,0.1-0.2,0.1-1.1c0-0.7,0-1.1-0.1-1.2 c0,0-0.2,0-0.5,0c0,0-0.1,0-0.1,0c-2.8,0.1-5.6,0.1-8.4,0l-3.6,0c-6.2,0-6.9-0.6-6.9-6.8l0-1.8c0-0.9,0-1.9-0.1-2.1 c0,0.1-0.9,0.1-1.8,0.1c-0.6,0-1.3,0-2,0C139.5,269.5,139.3,269.6,139.3,269.6L139.3,269.6z" class="st0"/></g><g><path d="M422.5,306.1c0,8.4-0.1,16.7,0,25.1c0,2.1-0.7,2.7-2.7,2.6c-5.9-0.1-5.1,0.6-5.1-5.1c0-15.6,0-31.2,0-46.8 c0-3.2,0-3.2,3.1-3.2c5.5,0,4.6-0.4,4.6,4.6C422.6,290.9,422.5,298.5,422.5,306.1z" class="st0"/><path d="M420.1,335.3c-0.1,0-0.2,0-0.3,0l-1.7,0c-2,0-3.2,0-4-0.9c-0.8-0.8-0.8-1.9-0.8-3.9l0-1.7 c0-11.7,0-23.4,0-35.1l0-11.7c0-1.9,0-3,0.8-3.8c0.8-0.8,1.9-0.8,3.7-0.8l1.2,0c2.2,0,3.3,0,4.1,0.8c0.8,0.8,0.8,1.9,0.7,3.5 c0,0.5,0,1.1,0,1.7c0,5.3,0,10.6,0,15.9l0,13.7c0,6.1,0,12.2,0.1,18.3c0,0.9-0.1,2.2-1,3.1C422.2,335.1,421,335.3,420.1,335.3z M416,280.2c0.2,0,0.2,0.9,0.2,1.7l0,11.7c0,11.7,0,23.4,0,35.1l0,1.8c0,0.9,0,1.8,0.1,2c0-0.1,1-0.1,1.9-0.1l1.8,0 c0.9,0,1.1-0.1,1.1-0.1c0,0,0.2-0.2,0.1-1.1c-0.1-6.1-0.1-12.2-0.1-18.3l0-13.7c0-5.3,0-10.6,0-15.9c0-0.7,0-1.3,0-1.8 c0-0.5,0-1,0-1.4c-0.4-0.1-1.2,0-2,0h-1.3C417.1,280.1,416.2,280.1,416,280.2C416,280.2,416,280.2,416,280.2z" class="st0"/></g><g><path d="M414.7,260.2c0-2,0-4,0-6c0-1.2,0.5-1.8,1.8-1.8c7.4,0.1,5.9-0.9,6,5.6c0.1,2.8,0,5.5,0,8.3 c0,1.2-0.5,1.9-1.7,1.8c-0.1,0-0.3,0-0.4,0c-6.7-0.1-5.5,0.7-5.6-5.4C414.7,261.9,414.7,261,414.7,260.2z" class="st0"/><path d="M417.6,269.6c-1.8,0-2.8-0.1-3.5-0.8c-0.8-0.8-0.8-1.9-0.8-3.8c0-0.6,0-1.3,0-2.2c0-0.7,0-1.3,0-2l0-2.3 c0-1.4,0-2.8,0-4.3c0-1.1,0.3-1.9,0.8-2.5c0.6-0.6,1.4-0.8,2.4-0.8c1,0,1.9,0,2.6,0c2.2,0,3.4,0,4.2,0.8 c0.8,0.8,0.8,1.9,0.7,3.5c0,0.7,0,1.6,0,2.7c0,1.5,0,2.9,0,4.4c0,1.3,0,2.6,0,3.9c0,1.1-0.3,1.9-0.8,2.5 c-0.6,0.6-1.3,0.8-2.3,0.8l-0.4-1.4l0,1.4l-2,0C418.1,269.6,417.8,269.6,417.6,269.6z M416.3,253.8c-0.2,0-0.2,0.1-0.2,0.4 c0,1.4,0,2.9,0,4.3l0,2.3c0,0.6,0,1.3,0,1.9c0,0.9,0,1.7,0,2.3c0,0.8,0,1.6,0.1,1.8c0-0.1,1.1-0.1,2.2-0.1l2.5,0 c0.2,0.1,0.3,0,0.3-0.4c0-1.3,0-2.6,0-3.9c0-1.4,0-2.9,0-4.3c0-1.2,0-2.1,0-2.9c0-0.5,0-1,0-1.3c-0.4,0-1.2,0-2,0 c-0.7,0-1.6,0-2.6,0C416.4,253.8,416.4,253.8,416.3,253.8z" class="st0"/></g></g><g><g><polygon points="274.6 39.3 274.6 2.9 226.2 68.7 199.5 182.7 273.3 228.2 273.3 202.9 225 172.2 247.1 78.2" class="st1"/></g><g><polygon points="297.2 39.3 297.2 2.9 345.6 68.7 372.4 182.7 298.6 228.2 298.6 202.9 346.8 172.2 324.7 78.2"/></g></g></g></switch></svg>